<svg xmlns="http://www.w3.org/2000/svg" xmlns:xlink="http://www.w3.org/1999/xlink" width="500" zoomAndPan="magnify" viewBox="0 0 375 374.999991" height="500" preserveAspectRatio="xMidYMid meet" version="1.0"><defs><clipPath id="bad33bf0f2"><path d="M 266 206 L 299.195312 206 L 299.195312 236 L 266 236 Z M 266 206 " clip-rule="nonzero"/></clipPath><clipPath id="7350b4d5b6"><path d="M 183.050781 270.394531 L 196 270.394531 L 196 276.941406 L 183.050781 276.941406 Z M 183.050781 270.394531 " clip-rule="nonzero"/></clipPath></defs><path fill="#f37d59" d="M 243.304688 111.28125 C 240.625 110.410156 239.765625 112.253906 238.84375 111.902344 C 237.917969 111.546875 237.480469 110.066406 236.128906 109.703125 C 233.425781 108.976562 232.820312 111.230469 231.195312 111.027344 C 229.277344 110.789062 227.945312 108.144531 225.449219 110.875 C 224.011719 110.71875 224.070312 112.050781 224.144531 113.664062 C 224.378906 118.628906 226.546875 116.53125 227.328125 117.511719 C 228.039062 118.40625 226.988281 121.179688 228.621094 122.378906 C 230.117188 123.484375 231.292969 121.773438 232.316406 122.597656 C 233.339844 123.429688 233.007812 125.765625 234.675781 126.875 C 239.023438 129.769531 243.582031 125.425781 245.152344 121.648438 C 246.960938 117.308594 245.984375 112.15625 243.304688 111.28125 " fill-opacity="1" fill-rule="nonzero"/><path fill="#3d3542" d="M 220.332031 184.636719 C 221.242188 184.554688 227.089844 188.199219 225.964844 189.066406 C 225.242188 189.621094 217.382812 186.292969 219.332031 184.699219 C 219.585938 184.554688 219.71875 184.691406 220.332031 184.636719 " fill-opacity="1" fill-rule="nonzero"/><path fill="#f3bbaa" d="M 219.023438 156.71875 C 216.09375 153.941406 216.039062 150.859375 216.039062 150.859375 C 216.039062 150.859375 219.929688 150.292969 226.054688 150.769531 C 228.183594 156.675781 226.25 164.183594 225.398438 166.832031 C 226.742188 169.558594 222.90625 180.902344 220.574219 184.753906 C 221.339844 185.128906 223.671875 186.328125 222.960938 186.703125 C 221.933594 187.246094 219.167969 185.820312 219.277344 185.175781 C 219.261719 185.03125 219.300781 184.652344 219.367188 184.164062 C 219.621094 180.183594 220.453125 168.238281 220.195312 167.09375 C 219.609375 164.488281 219.023438 159.234375 219.023438 156.71875 " fill-opacity="1" fill-rule="nonzero"/><path fill="#3d3542" d="M 209.53125 186.050781 C 208.699219 185.667969 201.964844 187.117188 202.730469 188.308594 C 203.222656 189.078125 211.746094 188.605469 210.449219 186.445312 C 210.261719 186.222656 210.089844 186.304688 209.53125 186.050781 " fill-opacity="1" fill-rule="nonzero"/><path fill="#f3bbaa" d="M 209.265625 186 C 209.117188 183.511719 207.675781 169.273438 210.988281 166.832031 C 211.082031 164.054688 211.605469 157 215.605469 152.167969 C 221.53125 153.789062 225 155.632812 225 155.632812 C 225 155.632812 223.90625 158.515625 220.210938 160.140625 C 219.359375 162.511719 217.027344 167.253906 215.59375 169.511719 C 214.953125 170.523438 211.574219 182.558594 210.535156 186.148438 C 210.457031 186.484375 210.390625 186.734375 210.34375 186.835938 C 210.226562 187.480469 207.136719 187.886719 206.359375 187.03125 C 205.820312 186.433594 208.414062 186.09375 209.265625 186 " fill-opacity="1" fill-rule="nonzero"/><path fill="#3d3542" d="M 227.179688 140.933594 C 231.90625 151.601562 230.835938 164.289062 230.835938 164.289062 C 230.835938 164.289062 221.941406 167.511719 209.949219 164.449219 C 210.40625 154.34375 212.390625 146.875 214.980469 140.324219 L 227.179688 140.933594 " fill-opacity="1" fill-rule="nonzero"/><path fill="#f3bbaa" d="M 224.875 124.882812 C 224.5625 124.675781 224.324219 124.519531 224.195312 124.382812 C 224.050781 124.230469 223.917969 124.023438 223.820312 123.773438 C 223.214844 122.359375 223.25 119.714844 223.25 119.714844 L 220.78125 120.113281 C 220.78125 120.113281 220.804688 122.398438 219.8125 123.851562 C 219.597656 124.175781 219.328125 124.457031 219 124.664062 C 220.378906 128.039062 224.296875 126.539062 224.875 124.882812 " fill-opacity="1" fill-rule="nonzero"/><path fill="#73a1b0" d="M 214.050781 137.433594 L 214.140625 138.039062 C 214.140625 138.039062 214.148438 138.039062 214.15625 138.042969 C 214.464844 138.136719 220.589844 139.921875 222.144531 139.105469 C 223.289062 137.652344 224.65625 136.972656 225.425781 138.421875 C 225.761719 139.058594 225.992188 139.640625 226.035156 140.128906 C 226.992188 139.773438 227.9375 139.246094 228.851562 138.496094 C 225.238281 131.804688 225.433594 128.679688 226.847656 127.722656 C 227.519531 127.277344 228.097656 127.332031 228.523438 127.511719 C 227.738281 126.839844 226.957031 126.277344 226.277344 125.8125 C 225.730469 127.351562 224.019531 131.296875 221.894531 128.09375 C 219.730469 131.246094 218.046875 127.089844 217.515625 125.578125 C 216.785156 126.078125 215.886719 126.773438 214.929688 127.734375 C 215.125 127.59375 216.839844 126.464844 218.082031 129.707031 C 218.773438 131.5 216.453125 135.097656 214.050781 137.433594 " fill-opacity="1" fill-rule="nonzero"/><path fill="#ffffff" d="M 217.515625 125.578125 C 218.046875 127.089844 219.730469 131.246094 221.894531 128.09375 C 224.019531 131.296875 225.730469 127.351562 226.277344 125.8125 C 225.726562 125.441406 225.246094 125.132812 224.871094 124.882812 C 224.296875 126.539062 220.375 128.039062 218.996094 124.664062 C 218.964844 124.679688 218.9375 124.707031 218.90625 124.722656 C 218.585938 124.90625 218.101562 125.179688 217.515625 125.578125 " fill-opacity="1" fill-rule="nonzero"/><path fill="#ffffff" d="M 214.15625 138.042969 C 214.445312 138.246094 220.347656 142.261719 226.039062 140.128906 C 225.996094 139.644531 225.761719 139.058594 225.425781 138.421875 C 224.660156 136.972656 223.292969 137.65625 222.144531 139.105469 C 220.589844 139.921875 214.46875 138.136719 214.15625 138.042969 " fill-opacity="1" fill-rule="nonzero"/><path fill="#ffffff" d="M 212.929688 130.042969 L 214.050781 137.433594 C 216.457031 135.101562 218.773438 131.503906 218.085938 129.707031 C 216.765625 126.265625 214.910156 127.75 214.910156 127.75 C 214.910156 127.75 214.910156 127.75 214.90625 127.75 C 214.265625 128.386719 213.59375 129.144531 212.929688 130.042969 " fill-opacity="1" fill-rule="nonzero"/><path fill="#ffd0cd" d="M 210.917969 133.273438 C 211.34375 135.464844 211.527344 137.910156 212.3125 138.871094 C 212.871094 138.5 213.460938 138.003906 214.050781 137.433594 C 216.457031 135.101562 218.773438 131.503906 218.085938 129.707031 C 216.765625 126.265625 214.910156 127.75 214.910156 127.75 C 214.910156 127.75 214.910156 127.75 214.90625 127.75 C 214.265625 128.386719 213.59375 129.144531 212.929688 130.042969 C 212.242188 130.964844 211.558594 132.027344 210.917969 133.273438 " fill-opacity="1" fill-rule="nonzero"/><path fill="#f37d59" d="M 224.976562 118.730469 C 223.796875 119.070312 222.558594 118.777344 221.523438 118.15625 C 221.753906 117.421875 222.023438 116.71875 222.253906 116.117188 C 217.753906 114.667969 218.59375 110.246094 218.59375 110.246094 C 219.050781 109.332031 221.769531 107.8125 224.515625 109.484375 C 227.257812 111.160156 226.191406 118.386719 224.976562 118.730469 " fill-opacity="1" fill-rule="nonzero"/><path fill="#f3bbaa" d="M 217.484375 115.140625 C 217.125 118.167969 218.933594 120.875 221.527344 121.183594 C 224.121094 121.488281 226.511719 119.28125 226.871094 116.25 C 227.230469 113.222656 225.417969 110.515625 222.828125 110.210938 C 220.234375 109.902344 217.84375 112.109375 217.484375 115.140625 " fill-opacity="1" fill-rule="nonzero"/><path fill="#f37d59" d="M 219.480469 110.550781 C 219.480469 110.550781 220.746094 117.667969 226.3125 119.117188 C 227.6875 117.289062 227.957031 114.585938 227.957031 114.585938 L 227.015625 112.035156 L 223.828125 109.5625 L 219.480469 110.550781 " fill-opacity="1" fill-rule="nonzero"/><path fill="#f37d59" d="M 217.449219 115.820312 C 217.449219 115.820312 216.535156 110.628906 219.734375 109.410156 C 220.117188 113.140625 217.449219 115.820312 217.449219 115.820312 " fill-opacity="1" fill-rule="nonzero"/><path fill="#ffd0cd" d="M 214.144531 138.039062 C 215.285156 141.3125 223.976562 141.921875 225.195312 141.472656 C 225.871094 141.214844 226.105469 140.746094 226.039062 140.128906 C 225.996094 139.644531 225.761719 139.058594 225.425781 138.421875 C 224.660156 136.972656 223.292969 137.65625 222.144531 139.105469 C 220.589844 139.921875 214.46875 138.136719 214.15625 138.042969 C 214.148438 138.039062 214.144531 138.039062 214.144531 138.039062 " fill-opacity="1" fill-rule="nonzero"/><path fill="#73a1b0" d="M 212.820312 144.066406 C 216.234375 145.25 221.015625 142.152344 221.015625 142.152344 C 232.539062 148.707031 234.363281 142.742188 233.355469 135.648438 C 232.839844 131.945312 230.648438 129.320312 228.527344 127.511719 C 228.097656 127.332031 227.519531 127.277344 226.847656 127.722656 C 225.433594 128.683594 225.238281 131.808594 228.855469 138.496094 C 227.941406 139.246094 226.996094 139.777344 226.039062 140.128906 C 225.996094 139.644531 225.761719 139.058594 225.425781 138.421875 C 224.660156 136.972656 223.292969 137.65625 222.144531 139.105469 C 220.589844 139.921875 214.46875 138.136719 214.15625 138.042969 C 214.148438 138.039062 214.144531 138.039062 214.144531 138.039062 L 214.050781 137.433594 C 216.457031 135.101562 219.148438 131.339844 218.460938 129.542969 C 217.144531 126.105469 214.910156 127.75 214.910156 127.75 C 214.910156 127.75 214.910156 127.75 214.90625 127.75 C 214.265625 128.386719 213.59375 129.144531 212.929688 130.042969 C 212.242188 130.964844 211.558594 132.027344 210.917969 133.273438 C 210.871094 133.363281 210.820312 133.457031 210.769531 133.550781 C 207.496094 140.054688 209.40625 142.886719 212.820312 144.066406 " fill-opacity="1" fill-rule="nonzero"/><path fill="#ffffff" d="M 220.472656 131.605469 C 220.472656 131.605469 226.707031 143.582031 226.046875 144.609375 C 225.386719 145.628906 217.320312 147.460938 216.714844 146.652344 C 216.109375 145.839844 213.273438 135.636719 213.675781 134.78125 C 214.078125 133.925781 219.464844 131.5625 220.472656 131.605469 " fill-opacity="1" fill-rule="nonzero"/><path fill="#f3bbaa" d="M 211.425781 143.429688 C 211.847656 143.6875 212.316406 143.894531 212.820312 144.066406 C 216.234375 145.25 221.015625 142.152344 221.015625 142.152344 C 232.535156 148.703125 234.363281 142.742188 233.355469 135.644531 C 232.835938 131.945312 230.648438 129.320312 228.523438 127.511719 C 228.097656 127.332031 227.519531 127.277344 226.847656 127.722656 C 225.433594 128.679688 225.238281 131.804688 228.851562 138.496094 C 227.9375 139.246094 226.992188 139.773438 226.035156 140.128906 C 225.992188 139.640625 225.761719 139.058594 225.425781 138.421875 C 224.65625 136.972656 223.289062 137.652344 222.144531 139.105469 C 220.992188 139.707031 217.320312 138.882812 215.375 138.378906 C 214.703125 138.203125 214.234375 138.066406 214.15625 138.042969 C 214.148438 138.039062 214.140625 138.039062 214.140625 138.039062 L 213.914062 137.238281 C 212.375 136.855469 210.949219 137.226562 209.359375 137.214844 C 208.570312 140.4375 209.574219 142.339844 211.425781 143.429688 " fill-opacity="1" fill-rule="nonzero"/><path fill="#73a1b0" d="M 227.566406 139.394531 C 228.003906 139.136719 227.71875 138.476562 228.144531 138.132812 C 224.101562 131.617188 225.15625 128.671875 226.566406 127.714844 C 227.238281 127.269531 228.097656 127.332031 228.527344 127.511719 C 230.648438 129.320312 232.839844 131.945312 233.355469 135.648438 C 234.023438 140.351562 233.445312 144.550781 229.625 144.945312 C 229.722656 142.855469 229.097656 140.710938 227.566406 139.394531 " fill-opacity="1" fill-rule="nonzero"/><path fill="#73a1b0" d="M 211.425781 143.429688 C 211.855469 141.160156 214.652344 138.921875 215.375 138.378906 C 214.703125 138.203125 214.234375 138.066406 214.15625 138.042969 C 214.148438 138.039062 214.140625 138.039062 214.140625 138.039062 L 213.914062 137.238281 C 212.285156 135.386719 210.65625 136 209.359375 137.214844 C 208.570312 140.4375 209.574219 142.339844 211.425781 143.429688 " fill-opacity="1" fill-rule="nonzero"/><path fill="#f3bbaa" d="M 102.609375 129.980469 C 102.554688 130.574219 102.4375 133.527344 103.109375 133.898438 C 103.636719 134.195312 105.152344 134.125 105.425781 134.007812 C 106.316406 133.648438 105.496094 135.980469 106.578125 137.664062 C 107.664062 139.34375 108.253906 137.734375 108.644531 137.078125 C 109.101562 136.316406 108.351562 134.621094 110.285156 134.40625 C 112.226562 134.1875 113.796875 131.785156 113.796875 131.785156 C 113.875 131.59375 111.902344 130.035156 109.71875 128.613281 C 108.238281 127.644531 106.652344 126.730469 105.542969 126.34375 C 104.8125 126.089844 104.804688 128.261719 104.601562 128.40625 C 103.457031 129.179688 102.667969 129.308594 102.609375 129.980469 " fill-opacity="1" fill-rule="nonzero"/><path fill="#79b4c7" d="M 106.289062 123.457031 C 105.515625 121.253906 108.613281 121.328125 111.769531 126.078125 C 116.183594 127.511719 113.796875 131.785156 113.796875 131.785156 C 113.796875 131.785156 112.226562 134.1875 110.285156 134.40625 C 109.519531 133.511719 109.015625 132.515625 108.695312 131.589844 C 111.078125 129.613281 109.113281 129.664062 108.230469 129.765625 C 108.230469 129.765625 107.402344 127.828125 105.304688 126.4375 C 102.015625 124.941406 104.714844 122.992188 106.289062 123.457031 " fill-opacity="1" fill-rule="nonzero"/><path fill="#73a1b0" d="M 106.226562 158.859375 C 106.308594 159.105469 106.589844 159.445312 107.03125 159.796875 C 107.449219 160.128906 108.007812 160.472656 108.683594 160.761719 C 109.398438 161.074219 109.511719 162.132812 110.433594 162.242188 C 112.558594 162.515625 115.855469 161.253906 118.363281 159.136719 C 118.40625 158.984375 118.449219 158.824219 118.492188 158.652344 C 118.59375 158.234375 118.6875 157.777344 118.765625 157.285156 C 119.035156 155.640625 119.160156 153.632812 119.121094 151.507812 C 119.050781 147.667969 118.445312 143.460938 117.140625 140.371094 C 116.96875 139.960938 116.785156 139.566406 116.582031 139.199219 C 115.941406 138.003906 115.167969 137.058594 114.246094 136.480469 C 113.996094 136.316406 113.726562 136.183594 113.449219 136.085938 C 113.425781 136.074219 113.414062 136.066406 113.414062 136.066406 C 113.289062 136.027344 113.164062 135.984375 113.039062 135.945312 C 112.917969 135.90625 112.796875 135.867188 112.675781 135.832031 C 108.542969 134.6875 106.472656 137.046875 105.542969 140.636719 C 105.535156 140.640625 105.535156 140.640625 105.542969 140.640625 C 105.257812 141.710938 105.078125 142.898438 104.980469 144.132812 C 104.964844 144.347656 104.949219 144.5625 104.9375 144.78125 C 104.574219 151 106.015625 158.191406 106.226562 158.859375 " fill-opacity="1" fill-rule="nonzero"/><path fill="#3d3542" d="M 113.414062 136.066406 C 113.414062 136.066406 139.699219 148.238281 118.679688 157.320312 C 111.195312 144.859375 112.527344 138.429688 113.414062 136.066406 " fill-opacity="1" fill-rule="nonzero"/><path fill="#3d3542" d="M 113.214844 137.496094 C 110.9375 134.5 98.753906 137.257812 115.457031 148.898438 C 117.183594 153.171875 117.300781 153.648438 117.300781 153.648438 C 117.300781 153.648438 104.265625 146.320312 105.632812 139.273438 C 106.507812 134.765625 110.125 134.921875 113.414062 136.066406 C 114.300781 136.664062 113.558594 137.386719 113.214844 137.496094 " fill-opacity="1" fill-rule="nonzero"/><path fill="#f3bbaa" d="M 109.976562 144.894531 C 109.976562 144.894531 105.765625 141.785156 106.394531 143.765625 C 107.03125 145.742188 107.355469 146.433594 109.292969 146.035156 C 110.492188 145.789062 109.976562 144.894531 109.976562 144.894531 " fill-opacity="1" fill-rule="nonzero"/><path fill="#3d3542" d="M 113.414062 136.066406 C 113.414062 136.066406 126.109375 137.847656 117.527344 139.785156 C 108.945312 141.726562 113.414062 136.066406 113.414062 136.066406 " fill-opacity="1" fill-rule="nonzero"/><path fill="#f3bbaa" d="M 112.011719 136.972656 C 112.742188 137.246094 124.878906 145.019531 122.28125 149.953125 C 120.871094 152.621094 112.539062 152.328125 109.292969 145.996094 C 109.234375 145.933594 109.847656 144.808594 109.847656 144.808594 C 109.847656 144.808594 114.382812 147.894531 116.9375 147.480469 C 107.550781 142.277344 106.40625 134.894531 112.011719 136.972656 " fill-opacity="1" fill-rule="nonzero"/><path fill="#73a1b0" d="M 110.273438 136.609375 C 110.257812 136.542969 110.238281 136.484375 110.222656 136.414062 C 114.136719 136.042969 120.0625 143.257812 120.0625 143.257812 C 119.164062 143.585938 118.300781 144.082031 117.539062 144.609375 C 116.785156 145.125 115.925781 145.765625 115.46875 146.597656 C 108.019531 142.03125 106.90625 136.597656 110.273438 136.609375 " fill-opacity="1" fill-rule="nonzero"/><path fill="#3d3542" d="M 131.398438 122.398438 C 131.398438 122.398438 141.527344 124.964844 150.949219 137.453125 C 160.367188 149.945312 150.753906 158.144531 145.949219 156.796875 C 141.140625 155.453125 131.398438 122.398438 131.398438 122.398438 " fill-opacity="1" fill-rule="nonzero"/><path fill="#3d3542" d="M 125.261719 153.53125 C 133.351562 154.921875 137.691406 155.152344 146.042969 155.050781 C 145.664062 162.976562 145.699219 166.800781 143.496094 173.394531 C 147.148438 178.054688 150.753906 190.40625 149.816406 199.59375 C 149.492188 199.894531 147.089844 200.238281 147.089844 200.238281 C 147.089844 200.238281 138.320312 180.632812 136.222656 175.960938 C 134.117188 171.28125 133.882812 164.4375 133.882812 164.4375 C 133.882812 164.4375 134.578125 162.34375 127.925781 175.140625 C 128.246094 178.757812 131.703125 182.34375 126.59375 199.722656 C 126.109375 199.878906 124.042969 200.941406 124.042969 200.941406 C 124.042969 200.941406 122.300781 183.863281 120.699219 175.960938 C 121.25 170.039062 123.351562 162.539062 125.261719 153.53125 " fill-opacity="1" fill-rule="nonzero"/><path fill="#73a1b0" d="M 119.539062 129.847656 L 119.539062 145.367188 C 119.59375 145.175781 119.65625 144.996094 119.703125 144.796875 C 119.867188 144.105469 120.003906 143.335938 120.109375 142.492188 C 120.109375 142.492188 120.101562 142.480469 120.113281 142.464844 C 120.121094 142.390625 120.128906 142.328125 120.136719 142.257812 C 120.144531 142.285156 120.144531 142.320312 120.144531 142.347656 C 120.273438 144.332031 120.59375 146.609375 121.1875 149.039062 C 121.246094 149.289062 121.316406 149.546875 121.378906 149.792969 C 121.527344 150.375 121.691406 150.957031 121.878906 151.550781 C 122.347656 153.074219 120.816406 153.167969 124.035156 154.925781 C 124.035156 154.925781 122.90625 154.539062 124.035156 154.925781 C 126.132812 157.621094 137.574219 161.558594 143.449219 152.996094 C 143.398438 152.757812 142.003906 153.621094 141.929688 153.359375 C 142.445312 149.730469 142.453125 146.144531 142.085938 142.589844 C 141.847656 140.25 141.441406 137.929688 140.90625 135.617188 C 140.054688 131.871094 138.871094 128.160156 137.503906 124.460938 C 137.125 124.230469 136.75 124.015625 136.378906 123.832031 C 135.203125 123.226562 134.082031 122.835938 133.128906 122.578125 C 132.382812 122.367188 131.042969 122.179688 130.039062 122.179688 C 130.027344 122.1875 130.011719 122.179688 130.007812 122.1875 C 129.882812 122.191406 129.757812 122.199219 129.652344 122.207031 C 128.992188 122.253906 128.613281 122.308594 128.613281 122.308594 C 128.613281 122.308594 128.066406 122.464844 126.429688 123.109375 C 125.6875 123.398438 124.976562 123.75 124.308594 124.132812 C 123.402344 124.660156 122.558594 125.25 121.789062 125.925781 C 121.6875 126.011719 121.589844 126.09375 121.496094 126.191406 C 121.382812 126.28125 121.273438 126.382812 121.171875 126.496094 L 119.539062 129.847656 " fill-opacity="1" fill-rule="nonzero"/><path fill="#f3bbaa" d="M 129.066406 123.691406 C 129.066406 123.691406 131.707031 123.0625 131.808594 124.765625 C 131.910156 126.476562 130.558594 128.640625 128.808594 129.097656 C 127.054688 129.554688 124.964844 126.585938 125.105469 125.523438 C 125.242188 124.460938 129.066406 123.691406 129.066406 123.691406 " fill-opacity="1" fill-rule="nonzero"/><path fill="#f3bbaa" d="M 128.507812 120.113281 C 128.507812 120.113281 127.929688 109.648438 123.617188 112.101562 C 117.527344 115.5625 119.300781 121.46875 119.894531 122.058594 C 121.71875 124.742188 126.050781 121.605469 126.050781 121.605469 L 128.507812 120.113281 " fill-opacity="1" fill-rule="nonzero"/><path fill="#73a1b0" d="M 128.507812 120.113281 C 128.507812 120.113281 133.097656 118.089844 129.742188 115.828125 C 130.195312 113.4375 131.15625 110.488281 128.109375 110.621094 C 126.730469 109.050781 122.753906 105.988281 121.96875 109.058594 C 120.136719 109.109375 116.242188 106.648438 116.933594 110.199219 C 117.625 113.746094 118.117188 114.96875 119.453125 116.605469 C 121.964844 116.117188 127.164062 116.746094 128.507812 120.113281 " fill-opacity="1" fill-rule="nonzero"/><path fill="#f3bbaa" d="M 123.707031 117.160156 C 123.707031 117.160156 126.460938 113.171875 125.875 117.660156 C 124.925781 118.304688 123.707031 117.160156 123.707031 117.160156 " fill-opacity="1" fill-rule="nonzero"/><path fill="#f3bbaa" d="M 128.507812 120.113281 C 128.507812 120.113281 129.945312 124.324219 130.035156 125.226562 C 130.117188 125.632812 125.652344 127.429688 124.257812 122.007812 C 124.957031 120.867188 128.507812 120.113281 128.507812 120.113281 " fill-opacity="1" fill-rule="nonzero"/><path fill="#3d3542" d="M 126.59375 199.722656 C 126.59375 199.722656 127.859375 202.726562 127.363281 202.917969 C 126.867188 203.109375 117.203125 203.175781 116.527344 202.683594 C 115.351562 201.839844 120.230469 201.300781 120.953125 201.148438 C 121.675781 200.992188 123.914062 199.878906 123.914062 199.878906 C 123.914062 199.878906 126.007812 200.378906 126.59375 199.722656 " fill-opacity="1" fill-rule="nonzero"/><path fill="#3d3542" d="M 133.0625 123.695312 C 133.082031 123.222656 133.105469 122.84375 133.128906 122.578125 C 134.085938 122.832031 135.203125 123.226562 136.378906 123.832031 C 137.480469 131.894531 140.972656 138.429688 141.164062 138.753906 C 141.097656 141.007812 141.242188 143.539062 141.726562 145.941406 C 133.972656 141.859375 132.898438 127.664062 133.0625 123.695312 " fill-opacity="1" fill-rule="nonzero"/><path fill="#f37d59" d="M 142.085938 142.589844 C 142.085938 142.589844 134.46875 139.671875 133.953125 140.875 C 133.4375 142.074219 131.550781 148.933594 131.894531 150.304688 C 132.238281 151.679688 143.449219 152.996094 143.449219 152.996094 C 143.449219 152.996094 142.671875 144.132812 142.085938 142.589844 " fill-opacity="1" fill-rule="nonzero"/><path fill="#3d3542" d="M 149.816406 199.59375 C 149.816406 199.59375 151.082031 202.59375 150.582031 202.785156 C 150.085938 202.980469 140.425781 203.042969 139.746094 202.554688 C 138.574219 201.707031 143.449219 201.171875 144.171875 201.015625 C 144.894531 200.859375 147.136719 199.746094 147.136719 199.746094 C 147.136719 199.746094 149.230469 200.246094 149.816406 199.59375 " fill-opacity="1" fill-rule="nonzero"/><path fill="#73a1b0" d="M 121.492188 126.179688 L 120.019531 134.871094 C 120.019531 134.871094 120.136719 137.332031 123.226562 146.019531 C 124.632812 149.96875 125.316406 152.253906 125.644531 153.570312 C 125.046875 154.878906 124.1875 158.421875 124.082031 158.773438 C 120.972656 161.554688 119.292969 150.03125 118.851562 145.332031 C 117.324219 129.019531 121.492188 126.179688 121.492188 126.179688 " fill-opacity="1" fill-rule="nonzero"/><path fill="#73a1b0" d="M 137.472656 124.441406 C 137.480469 124.449219 137.492188 124.453125 137.503906 124.460938 C 141.683594 127.023438 147.484375 132.855469 149.628906 143.847656 C 150.582031 148.746094 150.429688 162.144531 145.667969 159.597656 L 139.398438 154.066406 L 140.992188 153.308594 C 141.277344 152.636719 141.84375 152.230469 141.457031 143.394531 C 141.441406 143.015625 141.417969 142.644531 141.390625 142.28125 C 141.152344 138.75 140.535156 135.957031 139.894531 133.894531 C 139.007812 131 138.070312 129.546875 138.070312 129.546875 C 138.070312 129.546875 137.917969 129.132812 137.472656 128.425781 L 137.472656 124.441406 " fill-opacity="1" fill-rule="nonzero"/><path fill="#3d3542" d="M 135.800781 165.023438 C 135.800781 165.023438 129.992188 174.042969 125.523438 176.464844 C 130.121094 160.257812 131.203125 158.902344 135.800781 165.023438 " fill-opacity="1" fill-rule="nonzero"/><path fill="#ffffff" d="M 133.441406 151.085938 C 133.441406 151.085938 136.195312 141.796875 134.914062 141.160156 C 133.632812 140.519531 133.296875 144.65625 131.894531 150.304688 L 133.441406 151.085938 " fill-opacity="1" fill-rule="nonzero"/><path fill="#f3bbaa" d="M 167.625 169.175781 C 167.625 169.175781 155.894531 213.375 156.480469 218.578125 C 157.070312 223.777344 197.886719 249.261719 197.886719 249.261719 L 200.472656 246.90625 C 200.472656 246.90625 190.789062 220.730469 170.246094 213.636719 C 182.984375 193.136719 187.300781 166.261719 187.300781 166.261719 L 167.625 169.175781 " fill-opacity="1" fill-rule="nonzero"/><path fill="#f3bbaa" d="M 179.078125 159.917969 C 179.078125 159.917969 186.238281 198.8125 182.832031 252.652344 C 181.859375 254.214844 178.214844 253.109375 178.214844 253.109375 C 178.214844 253.109375 171.875 233.230469 166.363281 217.519531 C 161.777344 212.933594 162.484375 200.414062 161.070312 183.132812 C 161.582031 160.644531 165.3125 163.210938 179.078125 159.917969 " fill-opacity="1" fill-rule="nonzero"/><path fill="#3d3542" d="M 159.480469 181.722656 C 159.480469 181.722656 152.953125 214.519531 152.953125 219.457031 C 156.128906 220.867188 170.769531 219.457031 170.769531 219.457031 C 170.769531 219.457031 162.484375 184.191406 159.480469 181.722656 " fill-opacity="1" fill-rule="nonzero"/><path fill="#3d3542" d="M 181.183594 190.011719 C 181.183594 190.011719 191.414062 219.457031 191.414062 222.105469 C 190.003906 224.042969 168.480469 226.15625 165.300781 224.75 C 164.066406 220.339844 161.425781 187.1875 161.425781 187.1875 L 181.183594 190.011719 " fill-opacity="1" fill-rule="nonzero"/><path fill="#87806e" d="M 172.820312 125.335938 C 187.785156 130.703125 209.179688 165.558594 182.167969 188.21875 C 171.132812 191.4375 158.128906 187.304688 158.128906 187.304688 C 158.128906 187.304688 138.019531 112.867188 172.820312 125.335938 " fill-opacity="1" fill-rule="nonzero"/><path fill="#f37d59" d="M 187.890625 172.457031 C 187.890625 172.457031 199.6875 192.871094 197.53125 197.53125 C 195.371094 202.191406 168.792969 207.660156 165.179688 205.667969 C 161.5625 203.667969 158.371094 185.320312 161.226562 180.769531 C 164.085938 176.222656 184.808594 171.617188 187.890625 172.457031 " fill-opacity="1" fill-rule="nonzero"/><path fill="#87806e" d="M 157.894531 127.058594 C 157.894531 127.058594 166.363281 125.472656 170.769531 127.058594 C 175.1875 128.648438 187.367188 143.019531 190.359375 142.753906 C 202.179688 141.695312 191.769531 124.238281 175.539062 121.242188 C 159.304688 118.242188 153.433594 124.609375 157.894531 127.058594 " fill-opacity="1" fill-rule="nonzero"/><path fill="#73a1b0" d="M 184.238281 259.839844 C 184.238281 259.839844 167.300781 260.542969 166.832031 259.367188 C 166.359375 258.191406 166.789062 257.910156 167.421875 257.371094 C 169.566406 255.53125 178.214844 253.109375 178.214844 253.109375 L 182.832031 252.652344 C 182.832031 252.652344 185.652344 257.957031 184.238281 259.839844 " fill-opacity="1" fill-rule="nonzero"/><path fill="#73a1b0" d="M 199.535156 245.96875 L 196.945312 248.316406 L 197.179688 254.195312 C 197.179688 254.195312 192.808594 255.863281 192.121094 256.546875 C 191.0625 257.605469 192 259.601562 192.945312 259.601562 C 193.886719 259.601562 201.886719 259.367188 201.886719 259.367188 C 201.886719 259.367188 206.828125 249.960938 206.828125 248.550781 C 206.828125 247.140625 199.535156 245.96875 199.535156 245.96875 " fill-opacity="1" fill-rule="nonzero"/><path fill="#ffffff" d="M 200.121094 243.851562 L 202.355469 246.554688 L 197.175781 250.550781 L 194 249.140625 C 194 249.140625 199.179688 245.144531 200.121094 243.851562 " fill-opacity="1" fill-rule="nonzero"/><path fill="#73a1b0" d="M 183.886719 251.023438 C 183.886719 251.023438 184.710938 257.253906 184.476562 258.542969 C 180.007812 257.839844 175.652344 253.84375 175.652344 253.84375 L 175.066406 251.960938 L 183.886719 251.023438 " fill-opacity="1" fill-rule="nonzero"/><path fill="#f37d59" d="M 187.890625 172.457031 C 187.890625 172.457031 182.292969 144.035156 180.945312 142.753906 C 179.601562 141.472656 184.335938 173.507812 184.335938 173.507812 L 187.890625 172.457031 " fill-opacity="1" fill-rule="nonzero"/><path fill="#f37d59" d="M 166.019531 134.699219 C 166.019531 134.699219 160.105469 182.269531 160.300781 184.085938 C 163.300781 182.417969 164.785156 179.722656 164.785156 179.722656 C 164.785156 179.722656 165.582031 149.625 166.660156 145.03125 C 167.738281 140.441406 166.019531 134.699219 166.019531 134.699219 " fill-opacity="1" fill-rule="nonzero"/><path fill="#ffffff" d="M 164.199219 173.804688 C 163.851562 173.136719 163.550781 172.394531 163.246094 171.644531 C 165.464844 168.378906 171.246094 160.515625 176.433594 159.214844 C 163.890625 150.511719 159.660156 124.765625 174.066406 132.644531 C 180.910156 136.382812 186.300781 153.804688 186.300781 161.324219 C 186.300781 167.933594 168.875 173.367188 164.640625 174.585938 C 164.492188 174.328125 164.335938 174.070312 164.199219 173.804688 " fill-opacity="1" fill-rule="nonzero"/><path fill="#f3bbaa" d="M 170.828125 162.628906 C 172.757812 164.976562 174.113281 168.035156 174.617188 171.074219 C 170.476562 172.828125 166.40625 174.078125 164.640625 174.585938 C 164.492188 174.328125 164.335938 174.070312 164.199219 173.804688 C 163.851562 173.136719 163.550781 172.394531 163.246094 171.644531 C 164.671875 169.550781 167.5625 165.5625 170.828125 162.628906 " fill-opacity="1" fill-rule="nonzero"/><path fill="#f3bbaa" d="M 168.480469 111.011719 C 168.480469 111.011719 167.863281 115.597656 165.128906 117.273438 C 162.394531 118.949219 164.730469 120.871094 164.597656 122.296875 C 164.480469 123.53125 162.890625 125.617188 160.070312 123.945312 C 157.246094 122.269531 158.660156 118.96875 157.597656 120.125 C 157.273438 120.476562 155.070312 121.652344 154.070312 121.59375 C 152.804688 121.519531 149.425781 117.597656 149.246094 116.65625 C 149.023438 115.445312 150.21875 112.628906 151.542969 111.246094 C 152.863281 109.867188 168.480469 110.308594 168.480469 111.011719 " fill-opacity="1" fill-rule="nonzero"/><path fill="#3d3542" d="M 168.480469 111.714844 L 151.542969 111.246094 C 151.542969 111.246094 148.25 105.132812 151.777344 102.664062 C 155.304688 100.199219 173.1875 97.847656 168.480469 111.714844 " fill-opacity="1" fill-rule="nonzero"/><path fill="#3d3542" d="M 150.484375 108.367188 C 150.484375 108.367188 142.484375 110.425781 143.664062 111.601562 C 144.835938 112.777344 156.128906 111.363281 156.128906 111.363281 L 150.484375 108.367188 " fill-opacity="1" fill-rule="nonzero"/><path fill="#f3bbaa" d="M 163.246094 171.644531 C 163.246094 171.644531 159.050781 170.789062 160.453125 177.035156 C 161.285156 180.765625 165.503906 175.738281 165.003906 174.136719 C 164.035156 171.03125 163.246094 171.644531 163.246094 171.644531 " fill-opacity="1" fill-rule="nonzero"/><path fill="#f3bbaa" d="M 97.046875 159.699219 C 110.171875 154.777344 107.550781 166.914062 107.550781 166.914062 C 107.550781 166.914062 106.039062 168.929688 103.929688 170.816406 L 107.863281 173.273438 C 107.863281 173.273438 104.140625 174.300781 102.636719 174.539062 C 101.25 171.394531 97.84375 174.34375 96.351562 173.867188 C 95.757812 173.679688 92.753906 170.898438 92.921875 167.839844 C 93.105469 164.453125 95.40625 160.3125 97.046875 159.699219 " fill-opacity="1" fill-rule="nonzero"/><path fill="#f3bbaa" d="M 111.570312 204.808594 C 109.246094 211.488281 110.910156 220.597656 106.816406 227.183594 C 125.261719 233.550781 133.957031 257.050781 133.957031 257.050781 L 131.859375 258.742188 C 131.859375 258.742188 94.988281 236.285156 94.460938 231.613281 C 94.191406 229.203125 96.878906 217.417969 99.535156 206.601562 L 111.570312 204.808594 " fill-opacity="1" fill-rule="nonzero"/><path fill="#f3bbaa" d="M 91.363281 217.789062 L 111.515625 217.789062 C 106.320312 230.238281 99.246094 245.414062 89.992188 261.816406 C 88.59375 262.699219 86.40625 260.679688 86.40625 260.679688 C 86.40625 260.679688 88.730469 241.839844 90.421875 226.988281 C 89.621094 224.691406 90.113281 221.628906 91.363281 217.789062 " fill-opacity="1" fill-rule="nonzero"/><path fill="#3d3542" d="M 113.152344 199.742188 C 112.796875 202.78125 112.507812 216 112.027344 223.910156 C 112.027344 223.910156 119.011719 230.121094 118.75 230.664062 C 107.554688 236.789062 89.71875 236 87.703125 233.621094 C 88.285156 230.390625 89.972656 209.226562 92.773438 201.957031 L 113.152344 199.742188 " fill-opacity="1" fill-rule="nonzero"/><path fill="#3d3542" d="M 88.378906 267.542969 C 86.742188 267.578125 75.761719 262.140625 76.148438 261.21875 C 76.902344 259.414062 83.890625 262.011719 86.40625 260.679688 C 86.765625 260.488281 86.40625 260.679688 86.40625 260.679688 L 89.851562 261.945312 C 89.851562 261.945312 90.238281 267.507812 88.378906 267.542969 " fill-opacity="1" fill-rule="nonzero"/><path fill="#3d3542" d="M 133.753906 257.023438 L 131.859375 258.742188 L 132.03125 263.039062 C 132.03125 263.039062 129.867188 264.777344 129.367188 265.277344 C 128.589844 266.050781 128.246094 266.996094 128.933594 266.996094 C 129.621094 266.996094 135.472656 266.828125 135.472656 266.828125 C 135.472656 266.828125 138.3125 260.378906 138.3125 259.34375 C 138.3125 258.3125 133.753906 257.023438 133.753906 257.023438 " fill-opacity="1" fill-rule="nonzero"/><path fill="#ffffff" d="M 105.023438 172.832031 C 105.023438 172.832031 92.773438 170.71875 92.773438 201.957031 C 92.773438 201.957031 97.628906 204.28125 101.222656 203.226562 C 101.429688 195.625 105.023438 172.832031 105.023438 172.832031 " fill-opacity="1" fill-rule="nonzero"/><path fill="#79b4c7" d="M 100.585938 216.734375 C 102.15625 217.886719 116.425781 219.691406 121.707031 212.933594 C 124.675781 209.136719 111.355469 171.773438 105.023438 172.832031 C 98.683594 173.886719 92.71875 210.980469 100.585938 216.734375 " fill-opacity="1" fill-rule="nonzero"/><path fill="#73a1b0" d="M 88.191406 186.648438 C 88.46875 190.105469 93.511719 200.84375 93.511719 200.84375 C 93.511719 200.84375 103.484375 201.175781 104.601562 199.742188 C 104.601562 199.742188 102.382812 184.546875 100.316406 183.746094 C 98.261719 182.960938 88.859375 184.648438 88.277344 185.8125 C 88.253906 185.863281 88.226562 185.925781 88.226562 185.988281 C 88.175781 186.152344 88.175781 186.378906 88.191406 186.648438 " fill-opacity="1" fill-rule="nonzero"/><path fill="#f37d59" d="M 86.707031 191.195312 C 86.71875 191.347656 86.746094 191.5 86.796875 191.675781 C 87.53125 194.714844 92.085938 201.0625 92.085938 201.0625 C 92.085938 201.0625 100.164062 201.640625 100.648438 200.058594 C 100.773438 199.605469 100.480469 189.773438 98.417969 189.144531 C 96.453125 188.535156 87.429688 189.609375 86.757812 190.992188 C 86.707031 191.054688 86.695312 191.128906 86.707031 191.195312 " fill-opacity="1" fill-rule="nonzero"/><path fill="#ffffff" d="M 86.707031 191.195312 C 86.71875 191.347656 86.746094 191.5 86.796875 191.675781 C 88.773438 191.675781 97.960938 191.28125 98.363281 190.433594 C 99.59375 187.875 88.164062 190.332031 87.339844 190.6875 C 87.089844 190.800781 86.898438 190.890625 86.757812 190.992188 C 86.707031 191.054688 86.695312 191.128906 86.707031 191.195312 " fill-opacity="1" fill-rule="nonzero"/><path fill="#ffffff" d="M 88.191406 186.648438 C 89.902344 186.660156 99.457031 186.265625 99.875 185.40625 C 101.089844 182.859375 89.671875 185.304688 88.835938 185.671875 C 88.570312 185.785156 88.367188 185.886719 88.226562 185.988281 C 88.175781 186.152344 88.175781 186.378906 88.191406 186.648438 " fill-opacity="1" fill-rule="nonzero"/><path fill="#ffd0b6" d="M 89.195312 196.753906 C 90.632812 197.796875 90.960938 198.78125 91.035156 199.085938 C 93.003906 199.027344 98.863281 198.917969 103.804688 199.511719 C 99.742188 189.71875 100.507812 169.261719 110.058594 180.5 C 114.59375 185.835938 113.964844 198.203125 111.402344 204.457031 C 108.269531 212.109375 91.105469 200.859375 90.265625 200.304688 C 87.027344 198.378906 89.195312 196.753906 89.195312 196.753906 " fill-opacity="1" fill-rule="nonzero"/><path fill="#ffffff" d="M 97.167969 199.070312 C 99.285156 199.125 101.632812 199.25 103.804688 199.511719 C 99.742188 189.71875 100.507812 169.261719 110.058594 180.5 C 114.59375 185.835938 113.964844 198.203125 111.402344 204.457031 C 109.382812 209.394531 101.515625 206.460938 95.964844 203.609375 C 96.710938 202.160156 97.15625 200.5625 97.167969 199.070312 " fill-opacity="1" fill-rule="nonzero"/><path fill="#f37d59" d="M 107.640625 159.984375 C 108.757812 160.558594 109.839844 161.363281 111.078125 161.519531 C 113.578125 161.828125 114.507812 158.363281 118.671875 159.480469 C 120.75 160.039062 121.421875 162.316406 122.84375 162.859375 C 124.261719 163.40625 125.585938 160.570312 129.707031 161.914062 C 133.828125 163.253906 137.628906 171.699219 134.675781 179.378906 C 131.789062 186.882812 121.917969 190.703125 115.234375 186.25 C 112.671875 184.542969 110.652344 176.1875 107.402344 174.210938 C 105.820312 173.246094 101.894531 173.023438 100.320312 166.445312 C 99.816406 164.339844 97.914062 162.019531 94.507812 162.984375 C 93.234375 163.34375 99.015625 153.644531 107.640625 159.984375 " fill-opacity="1" fill-rule="nonzero"/><path fill="#3d3542" d="M 245.863281 162.414062 C 245.863281 162.414062 242.773438 165.058594 240.125 162.558594 C 237.777344 160.34375 239.535156 158.441406 239.535156 158.441406 C 239.535156 158.441406 235.414062 159.179688 236.003906 154.03125 C 236.59375 148.882812 239.535156 150.058594 239.535156 150.058594 C 239.535156 150.058594 236.554688 147.210938 239.757812 144.398438 C 242.527344 141.964844 245.273438 144.765625 245.273438 144.765625 C 245.273438 144.765625 246.578125 142.78125 249.082031 142.742188 C 252.722656 142.6875 253.277344 147.429688 253.277344 147.429688 L 244.246094 151.089844 C 244.246094 151.089844 243.804688 159.917969 245.863281 162.414062 " fill-opacity="1" fill-rule="nonzero"/><path fill="#966550" d="M 242.289062 228.183594 C 242.289062 228.183594 239.230469 253.148438 239.769531 260.332031 C 240.128906 260.332031 241.746094 260.332031 241.746094 260.332031 C 241.746094 260.332031 255.582031 237.164062 248.398438 228.542969 C 244.085938 228.003906 242.289062 228.183594 242.289062 228.183594 " fill-opacity="1" fill-rule="nonzero"/><path fill="#966550" d="M 253.628906 228.023438 C 253.628906 228.023438 252.550781 237 254.523438 238.257812 C 256.503906 239.515625 284.667969 255.476562 284.667969 255.476562 L 285.792969 254.421875 C 285.792969 254.421875 276.449219 234.488281 263.511719 234.667969 C 263.511719 230.714844 263.332031 228.742188 263.332031 228.742188 L 253.628906 228.023438 " fill-opacity="1" fill-rule="nonzero"/><path fill="#3d3542" d="M 239.714844 259.585938 C 239.714844 259.585938 234.082031 264.015625 230.847656 264.375 C 227.613281 264.734375 228.691406 265.808594 230.128906 266.167969 C 231.566406 266.527344 244.261719 267.515625 244.441406 266.078125 C 244.621094 264.640625 241.746094 260.332031 241.746094 260.332031 L 239.714844 259.585938 " fill-opacity="1" fill-rule="nonzero"/><path fill="#3d3542" d="M 284.773438 252.488281 C 285.164062 253.460938 288.234375 253.046875 289.667969 253.761719 C 291.109375 254.480469 289.683594 264.464844 287.882812 266.261719 C 286.089844 268.054688 282.804688 266.769531 282.804688 266.769531 C 282.378906 264.765625 284.949219 264.238281 285.664062 262.625 C 286.386719 261.007812 283.605469 254.890625 283.605469 254.890625 L 284.773438 252.488281 " fill-opacity="1" fill-rule="nonzero"/><path fill="#f37d59" d="M 263.964844 195.652344 C 263.605469 198.707031 269.222656 212.472656 268.738281 220.410156 C 268.738281 220.410156 271.882812 226.234375 271.617188 226.78125 C 260.375 232.929688 242.464844 232.140625 240.441406 229.75 C 241.019531 226.503906 242.714844 205.253906 245.53125 197.953125 L 263.964844 195.652344 " fill-opacity="1" fill-rule="nonzero"/><path fill="#966550" d="M 243.804688 159.917969 C 245.011719 162.300781 247.210938 163.890625 249.742188 163.929688 C 253.613281 163.980469 256.796875 160.355469 256.871094 155.828125 C 256.925781 151.296875 253.839844 147.589844 249.96875 147.53125 C 248.042969 147.5 246.28125 148.386719 244.988281 149.851562 C 243.691406 151.316406 242.863281 153.359375 242.835938 155.628906 C 242.8125 157.203125 243.171875 158.667969 243.804688 159.917969 " fill-opacity="1" fill-rule="nonzero"/><path fill="#3d3542" d="M 255.648438 151.125 C 255.59375 151.359375 249.359375 148.644531 246.226562 155.644531 C 245.195312 154.914062 243.273438 153.960938 244.742188 158.429688 C 244.296875 159.234375 243.933594 159.824219 243.804688 159.917969 C 239.757812 155.578125 239.601562 147.214844 245.660156 147.539062 C 250.875 143.394531 255.59375 148.53125 255.648438 151.125 " fill-opacity="1" fill-rule="nonzero"/><path fill="#966550" d="M 236.949219 189.605469 C 236.933594 187.851562 237.164062 185.417969 237.558594 182.964844 L 250.144531 182.964844 C 248.667969 188.507812 245.421875 194.21875 242.355469 197.359375 C 239.730469 200.046875 231.890625 207.539062 231.890625 207.539062 C 230.714844 207.113281 231.570312 202.628906 236.949219 189.605469 " fill-opacity="1" fill-rule="nonzero"/><path fill="#ffffff" d="M 237.53125 183.121094 C 237.898438 180.835938 238.40625 178.523438 239.011719 176.707031 C 239.199219 176.152344 240.660156 175.195312 240.660156 175.195312 L 250.949219 176.765625 C 251.089844 180.171875 250.035156 184.15625 248.429688 187.847656 C 244.820312 186.164062 241.195312 184.597656 237.53125 183.121094 " fill-opacity="1" fill-rule="nonzero"/><path fill="#ffffff" d="M 244.644531 199.96875 C 245.980469 201.496094 261.855469 205.519531 265.863281 197.527344 C 268.117188 193.039062 257.671875 164.019531 251.410156 166.398438 C 248.503906 167.503906 242.640625 176.019531 242.640625 176.019531 C 240.550781 185.078125 242.355469 197.359375 244.644531 199.96875 " fill-opacity="1" fill-rule="nonzero"/><path fill="#0475a7" d="M 252.25 176.707031 L 244.667969 176.707031 C 244.59375 174.835938 244.527344 171.054688 245.15625 168.925781 L 248.6875 166.507812 C 249.050781 166.390625 249.429688 166.292969 249.824219 166.207031 L 252.023438 166.933594 L 255.160156 167.96875 C 255.160156 167.96875 255.175781 167.972656 255.195312 167.984375 C 255.25 168.011719 255.394531 168.097656 255.609375 168.230469 C 255.519531 168.128906 255.429688 168.03125 255.335938 167.933594 C 255.464844 167.957031 256.65625 168.230469 258.171875 168.859375 C 257.167969 169.46875 254.300781 172.992188 252.25 176.707031 " fill-opacity="1" fill-rule="nonzero"/><path fill="#ffffff" d="M 244.152344 169.707031 L 244.152344 169.703125 C 244.160156 169.695312 244.167969 169.683594 244.167969 169.683594 C 244.507812 169.417969 244.839844 169.160156 245.152344 168.925781 C 245.539062 168.625 245.910156 168.355469 246.265625 168.101562 C 247.136719 167.488281 247.875 167 248.421875 166.660156 C 248.519531 166.605469 248.601562 166.550781 248.6875 166.507812 C 248.890625 166.378906 249.058594 166.265625 249.183594 166.207031 C 249.324219 166.113281 249.40625 166.070312 249.40625 166.070312 L 249.816406 166.207031 L 252.019531 166.929688 L 253.820312 167.527344 L 253.695312 166.035156 L 253.691406 165.996094 C 253.691406 165.996094 253.699219 166 253.730469 166.003906 C 253.960938 166.070312 255.078125 166.425781 256.550781 167.101562 C 256.925781 167.28125 257.332031 167.480469 257.753906 167.710938 L 257.757812 167.710938 C 258.472656 168.082031 259.226562 168.539062 259.972656 169.054688 C 262.441406 170.773438 264.792969 173.28125 265.273438 176.707031 L 265.046875 176.707031 L 256.925781 178.660156 L 242.472656 178.386719 L 241.238281 176.707031 L 239.011719 176.707031 C 240.25 173.917969 241.988281 171.441406 244.152344 169.707031 " fill-opacity="1" fill-rule="nonzero"/><path fill="#966550" d="M 256.550781 167.101562 C 256.382812 167.804688 255.980469 168.996094 255.042969 170.246094 C 254.113281 171.496094 252.652344 172.804688 250.347656 173.75 C 250.175781 169.738281 252.347656 167.207031 253.695312 166.035156 C 253.703125 166.023438 253.71875 166.011719 253.730469 166.003906 C 253.960938 166.070312 255.078125 166.425781 256.550781 167.101562 " fill-opacity="1" fill-rule="nonzero"/><path fill="#ffffff" d="M 257.753906 167.710938 C 264.839844 171.71875 268.019531 176.589844 269.4375 181.332031 L 264.753906 181.332031 L 264.753906 190.792969 L 260.59375 190.792969 C 254.941406 181.105469 257.753906 167.710938 257.753906 167.710938 " fill-opacity="1" fill-rule="nonzero"/><path fill="#966550" d="M 246.273438 168.105469 C 247.140625 167.488281 247.878906 167 248.425781 166.664062 C 248.3125 166.449219 248.207031 166.222656 248.113281 166.007812 C 246.832031 163.089844 246.597656 159.902344 246.597656 159.902344 L 251.449219 158.488281 C 251.449219 158.488281 252.304688 165.542969 255.320312 167.921875 C 255.914062 168.105469 256.550781 167.101562 256.550781 167.101562 C 256.550781 167.101562 256.25 168.371094 256.175781 168.605469 C 255.765625 169.703125 251.867188 174.5625 247.824219 174.105469 C 244.664062 173.757812 245.46875 170.417969 246.273438 168.105469 " fill-opacity="1" fill-rule="nonzero"/><path fill="#966550" d="M 264.136719 180.75 C 266.613281 178.851562 267.089844 176.261719 267.089844 176.261719 C 271.070312 181.375 272.570312 186.171875 273.855469 192.074219 C 274.871094 196.753906 275.847656 201.902344 276.328125 205.589844 L 273.433594 205.589844 C 272.871094 202.257812 266.484375 192.496094 266.886719 190.996094 C 263.8125 189.644531 259.238281 183.859375 259.238281 183.859375 C 259.238281 183.859375 261.148438 183.03125 264.136719 180.75 " fill-opacity="1" fill-rule="nonzero"/><g clip-path="url(#bad33bf0f2)"><path fill="#73a1b0" d="M 285.226562 206.816406 C 285.226562 206.816406 275.203125 212.367188 267.683594 213.632812 C 264.769531 214.121094 269.308594 233.386719 270.320312 235.183594 C 271.332031 236.980469 298.734375 227.734375 299.011719 224.027344 C 299.289062 220.320312 287.59375 208.085938 285.226562 206.816406 " fill-opacity="1" fill-rule="nonzero"/></g><path fill="#73a1b0" d="M 281.71875 208.820312 C 281.71875 208.820312 273.199219 199.621094 271.144531 213.066406 C 272.820312 213.457031 272.9375 212.796875 273.25 211.953125 C 273.5625 211.113281 275.3125 205.949219 279.375 209.171875 C 281.417969 209.898438 281.71875 208.820312 281.71875 208.820312 " fill-opacity="1" fill-rule="nonzero"/><path fill="#966550" d="M 276.085938 204.09375 C 276.085938 204.09375 280.617188 207.394531 278.207031 209.171875 C 275.789062 210.949219 273.601562 210.511719 273.164062 209.929688 C 272.726562 209.34375 273.582031 205.695312 273.582031 205.695312 L 276.085938 204.09375 " fill-opacity="1" fill-rule="nonzero"/><path fill="#966550" d="M 234.1875 205.113281 C 234.1875 205.113281 230.394531 211.535156 229.222656 211.242188 C 229.222656 211.242188 226.304688 207.15625 227.324219 205.550781 C 228.347656 203.949219 232.289062 203.21875 232.289062 203.21875 L 234.1875 205.113281 " fill-opacity="1" fill-rule="nonzero"/><path fill="#3d3542" d="M 208.238281 229.820312 C 208.238281 229.820312 212.507812 238.476562 199.703125 250.175781 C 194.839844 251.917969 194.457031 247.859375 194.457031 247.859375 C 194.457031 247.859375 196.046875 233.234375 196.046875 230.796875 C 201.410156 228.847656 208.238281 229.820312 208.238281 229.820312 " fill-opacity="1" fill-rule="nonzero"/><path fill="#79b4c7" d="M 200.128906 203.042969 C 198.9375 200.835938 195.980469 198.074219 192.921875 202.601562 C 189.863281 207.125 183.824219 215.472656 183.824219 215.472656 L 173.015625 216.195312 L 172.378906 218.125 C 172.378906 218.125 188.359375 224.449219 191.417969 219.925781 C 194.472656 215.402344 204.140625 210.46875 200.128906 203.042969 " fill-opacity="1" fill-rule="nonzero"/><path fill="#966550" d="M 173.015625 216.195312 L 177.914062 215.867188 C 177.976562 217.207031 177.757812 218.527344 177.378906 219.820312 C 174.519531 218.972656 172.378906 218.125 172.378906 218.125 C 172.183594 218.945312 170.375 223.125 169.183594 219.414062 C 168.023438 215.804688 173.015625 216.195312 173.015625 216.195312 " fill-opacity="1" fill-rule="nonzero"/><path fill="#3d3542" d="M 194.457031 247.859375 C 194.457031 247.859375 193.203125 265.335938 192.785156 271.324219 C 193.082031 271.363281 194.417969 271.558594 194.417969 271.558594 C 194.417969 271.558594 206.777344 257.933594 199.703125 250.175781 C 196.214844 249.214844 194.457031 247.859375 194.457031 247.859375 " fill-opacity="1" fill-rule="nonzero"/><path fill="#3d3542" d="M 202.222656 232.421875 C 202.222656 232.421875 209.050781 247.535156 214.152344 250.53125 C 215.835938 251.519531 236.859375 253.28125 236.859375 253.28125 L 237.867188 252.503906 C 237.867188 252.503906 230.515625 242.46875 219.929688 244.492188 C 219.351562 241.25 215.394531 225.273438 215.394531 225.273438 L 202.222656 232.421875 " fill-opacity="1" fill-rule="nonzero"/><g clip-path="url(#7350b4d5b6)"><path fill="#f37d59" d="M 192.832031 270.699219 C 192.832031 270.699219 187.652344 273.675781 184.945312 273.582031 C 182.234375 273.488281 182.992188 274.503906 184.132812 274.976562 C 185.277344 275.445312 195.625 277.78125 195.945312 276.621094 C 196.265625 275.457031 194.417969 271.558594 194.417969 271.558594 L 192.832031 270.699219 " fill-opacity="1" fill-rule="nonzero"/></g><path fill="#f37d59" d="M 236.859375 253.28125 C 236.859375 253.28125 241.851562 256.554688 242.992188 259.011719 C 244.132812 261.472656 244.695312 260.332031 244.601562 259.105469 C 244.503906 257.875 241.917969 247.589844 240.738281 247.828125 C 239.554688 248.070312 236.90625 251.476562 236.90625 251.476562 L 236.859375 253.28125 " fill-opacity="1" fill-rule="nonzero"/><path fill="#73a1b0" d="M 191.734375 196.128906 C 191.734375 196.128906 191.6875 195.574219 196.21875 195.789062 C 206.832031 196.300781 212.789062 208.214844 215.679688 216.582031 L 215.679688 226.925781 C 207.425781 234.089844 195.222656 233.824219 195.171875 233.554688 C 188.117188 210.035156 191.734375 196.128906 191.734375 196.128906 " fill-opacity="1" fill-rule="nonzero"/><path fill="#87806e" d="M 201.289062 196.914062 C 201.289062 196.914062 211.941406 215.582031 213.636719 219.996094 C 215.332031 224.402344 225.71875 219.261719 226.9375 214.875 C 227.890625 211.453125 217.933594 196.464844 206.613281 193.746094 C 204.429688 193.222656 201.289062 196.914062 201.289062 196.914062 " fill-opacity="1" fill-rule="nonzero"/><path fill="#87806e" d="M 211.230469 195.367188 C 211.699219 195.285156 214.359375 194.746094 215.65625 195.328125 C 224.5 199.269531 226.546875 206.78125 220.273438 208.695312 C 216.347656 202.941406 211.230469 195.367188 211.230469 195.367188 " fill-opacity="1" fill-rule="nonzero"/><path fill="#87806e" d="M 213.683594 218.394531 C 213.683594 218.394531 196.324219 212.898438 193.96875 206.421875 C 190.167969 195.957031 201.289062 196.914062 201.289062 196.914062 L 213.015625 210.535156 L 213.683594 218.394531 " fill-opacity="1" fill-rule="nonzero"/><path fill="#79b4c7" d="M 196.035156 200.820312 C 194.144531 202.46875 195.308594 206.121094 197.832031 207.722656 C 202.449219 210.644531 211.753906 213.984375 211.753906 213.984375 L 214.835938 224.359375 L 216.859375 224.554688 C 216.859375 224.554688 219.277344 208.125 214.433594 205.601562 C 209.296875 202.929688 202.40625 195.277344 196.035156 200.820312 " fill-opacity="1" fill-rule="nonzero"/><path fill="#966550" d="M 195.464844 193.726562 C 195.464844 193.726562 195.226562 181.1875 189.542969 183.628906 C 183.859375 186.074219 183.09375 190.882812 185.3125 194.265625 C 187.53125 197.644531 192.371094 195.53125 192.371094 195.53125 L 195.464844 193.726562 " fill-opacity="1" fill-rule="nonzero"/><path fill="#3d3542" d="M 195.464844 193.726562 C 195.464844 193.726562 201.234375 191.300781 197.097656 188.414062 C 197.714844 185.445312 198.976562 181.785156 195.179688 181.886719 C 193.492188 179.898438 188.601562 175.996094 187.558594 179.804688 C 185.273438 179.824219 177.371094 177.21875 178.15625 181.65625 C 178.941406 186.09375 182.675781 185.625 182.675781 185.625 C 182.675781 185.625 181.566406 189.0625 184.257812 189.160156 C 187.402344 188.601562 193.863281 189.5 195.464844 193.726562 " fill-opacity="1" fill-rule="nonzero"/><path fill="#966550" d="M 189.546875 189.941406 C 189.546875 189.941406 193.066406 185.027344 192.242188 190.605469 C 191.042969 191.394531 189.546875 189.941406 189.546875 189.941406 " fill-opacity="1" fill-rule="nonzero"/><path fill="#966550" d="M 195.355469 193.472656 C 195.355469 193.472656 196.269531 195.140625 196.351562 196.09375 C 196.042969 196.628906 193.277344 199.230469 190.84375 195.394531 C 191.601562 194.199219 195.355469 193.472656 195.355469 193.472656 " fill-opacity="1" fill-rule="nonzero"/><path fill="#966550" d="M 214.835938 224.359375 L 213.441406 219.660156 C 214.734375 219.304688 216.070312 219.222656 217.417969 219.308594 C 217.214844 222.285156 216.859375 224.554688 216.859375 224.554688 C 217.707031 224.5625 224.519531 225.316406 218.824219 227.386719 C 215.257812 228.6875 214.835938 224.359375 214.835938 224.359375 " fill-opacity="1" fill-rule="nonzero"/></svg>